<?xml version="1.0" encoding="UTF-8" standalone="no"?>
<!-- Created with Inkscape (http://www.inkscape.org/) -->

<svg
   width="70mm"
   height="69.999992mm"
   viewBox="0 0 70 69.999992"
   version="1.1"
   id="svg5"
   xml:space="preserve"
   xmlns="http://www.w3.org/2000/svg"
   xmlns:svg="http://www.w3.org/2000/svg"><defs
     id="defs2" /><g
     id="layer1"
     transform="translate(-296.60062,-85.685399)"><g
       id="g14497"><path
         style="fill:#ffcc00;stroke:#000000;stroke-width:0.564999;stop-color:#000000"
         d="m 305.54969,88.853197 h 5.74716"
         id="path179" /><path
         style="fill:#ffcc00;stroke:#000000;stroke-width:0.564999;stop-color:#000000"
         d="m 312.73364,88.613731 h 2.15518"
         id="path181" /><path
         style="fill:#ffcc00;stroke:#000000;stroke-width:0.564999;stop-color:#000000"
         d="m 305.54969,90.888647 h 3.11305"
         id="path185" /><path
         style="fill:#ffcc00;stroke:#000000;stroke-width:0.564999;stop-color:#000000"
         d="m 310.45872,91.008379 h 7.18395"
         id="path187" /><path
         style="fill:#ffcc00;stroke:#000000;stroke-width:0.564999;stop-color:#000000"
         d="m 328.17913,90.050521 1.43679,1.436788"
         id="path191" /><path
         style="fill:#ffcc00;stroke:#000000;stroke-width:0.564999;stop-color:#000000"
         d="m 331.65137,90.050862 -1.43679,1.43679"
         id="path191-7" /><path
         style="fill:#ffcc00;stroke:#000000;stroke-width:0.564999;stop-color:#000000"
         d="m 329.61552,92.205706 -1.43679,1.43679"
         id="path191-5" /><path
         style="fill:#ffcc00;stroke:#000000;stroke-width:0.564999;stop-color:#000000"
         d="m 330.21473,92.205707 1.43679,1.436788"
         id="path191-6" /><path
         style="fill:#ffcc00;stroke:#000000;stroke-width:0.564999;stop-color:#000000"
         d="m 354.81972,91.517244 1.43679,1.436788"
         id="path191-0" /><path
         style="fill:#ffcc00;stroke:#000000;stroke-width:0.564999;stop-color:#000000"
         d="m 358.29196,91.517585 -1.43679,1.43679"
         id="path191-7-9" /><path
         style="fill:#ffcc00;stroke:#000000;stroke-width:0.564999;stop-color:#000000"
         d="m 356.25611,93.672429 -1.43679,1.43679"
         id="path191-5-9" /><path
         style="fill:#ffcc00;stroke:#000000;stroke-width:0.564999;stop-color:#000000"
         d="m 356.85532,93.67243 1.43679,1.436788"
         id="path191-6-6" /><path
         style="fill:#ffcc00;stroke:#000000;stroke-width:0.564999;stop-color:#000000"
         d="m 314.52983,138.30083 1.43679,1.43679"
         id="path191-1" /><path
         style="fill:#ffcc00;stroke:#000000;stroke-width:0.564999;stop-color:#000000"
         d="m 318.00207,138.30117 -1.43679,1.43679"
         id="path191-7-0" /><path
         style="fill:#ffcc00;stroke:#000000;stroke-width:0.564999;stop-color:#000000"
         d="m 315.96622,140.45601 -1.43679,1.43679"
         id="path191-5-5" /><path
         style="fill:#ffcc00;stroke:#000000;stroke-width:0.564999;stop-color:#000000"
         d="m 316.56543,140.45601 1.43679,1.43679"
         id="path191-6-8" /><ellipse
         style="fill:#cd4f2a;fill-opacity:1;stroke:#000000;stroke-width:0.506184;stroke-dasharray:none;stop-color:#000000"
         id="path417"
         cx="346.75266"
         cy="90.364815"
         rx="1.3938978"
         ry="1.3340316" /><ellipse
         style="fill:#3ee217;fill-opacity:1;stroke:#000000;stroke-width:0.506184;stroke-dasharray:none;stop-color:#000000"
         id="path417-5"
         cx="307.15115"
         cy="130.28059"
         rx="1.3938978"
         ry="1.3340316" /><ellipse
         style="fill:#33bde6;fill-opacity:1;stroke:#000000;stroke-width:0.506184;stroke-dasharray:none;stop-color:#000000"
         id="path417-7"
         cx="338.85123"
         cy="140.12852"
         rx="1.3938978"
         ry="1.3340316" /><path
         style="fill:none;stroke:#000000;stroke-width:0.600001;stroke-dasharray:none;stop-color:#000000"
         d="m 346.5119,140.18148 h 7.15408"
         id="path1237" /><path
         style="fill:none;stroke:#000000;stroke-width:0.600001;stroke-dasharray:none;stop-color:#000000"
         d="m 355.31692,140.22381 h 2.87857"
         id="path1239" /><path
         style="fill:none;stroke:#000000;stroke-width:0.600001;stroke-dasharray:none;stop-color:#000000"
         d="m 349.26347,142.4674 h 2.15893"
         id="path1241" /><path
         style="fill:none;stroke:#000000;stroke-width:0.600001;stroke-dasharray:none;stop-color:#000000"
         d="m 352.86168,142.42506 h 5.29147"
         id="path1243" /><path
         style="fill:none;stroke:#000000;stroke-width:0.600001;stroke-dasharray:none;stop-color:#000000"
         d="m 351.54939,125.36535 v 9.9903 h -9.52466"
         id="path1245" /><path
         style="fill:none;stroke:#000000;stroke-width:0.600001;stroke-dasharray:none;stop-color:#000000"
         d="m 322.78308,134.88978 h -9.9903 v -9.52466"
         id="path1245-0" /><path
         style="fill:none;stroke:#000000;stroke-width:0.600001;stroke-dasharray:none;stop-color:#000000"
         d="m 342.02497,96.340106 h 9.9903 v 9.524674"
         id="path1245-0-9" /><path
         style="fill:none;stroke:#000000;stroke-width:0.600001;stroke-dasharray:none;stop-color:#000000"
         d="m 312.8229,106.33014 v -9.990318 h 9.52466"
         id="path1245-0-6" /><path
         style="fill:none;stroke:#000000;stroke-width:0.600001;stroke-dasharray:none;stop-color:#000000"
         d="m 355.40159,124.20122 v 5.71479"
         id="path1269" /><path
         style="fill:none;stroke:#000000;stroke-width:0.600001;stroke-dasharray:none;stop-color:#000000"
         d="m 355.42275,131.92678 v 2.26475"
         id="path1271" /><path
         style="fill:none;stroke:#000000;stroke-width:0.600001;stroke-dasharray:none;stop-color:#000000"
         d="m 307.91441,99.988314 v 5.777106"
         id="path1273" /><path
         style="fill:none;stroke:#000000;stroke-width:0.600001;stroke-dasharray:none;stop-color:#000000"
         d="m 307.91441,107.56141 v 2.33478"
         id="path1275" /><path
         style="fill:none;stroke:#000000;stroke-width:0.600001;stroke-dasharray:none;stop-color:#000000"
         d="m 332.2355,96.198713 v 8.265307"
         id="path1323" /><path
         style="fill:none;stroke:#000000;stroke-width:0.600001;stroke-dasharray:none;stop-color:#000000"
         d="m 332.23597,127.28545 v 8.26529"
         id="path1323-7" /><path
         style="fill:none;stroke:#000000;stroke-width:0.600001;stroke-dasharray:none;stop-color:#000000"
         d="m 307.67247,115.79836 c 2.05009,-1.63322 4.06629,-3.31566 6.24778,-4.76526 1.76287,-1.17143 3.59268,-2.25776 5.50598,-3.16287 1.91497,-0.90591 3.88358,-1.75485 5.94271,-2.2526 2.35562,-0.56943 4.80138,-0.799 7.2248,-0.81292 1.86803,-0.0107 3.75007,0.16752 5.57587,0.56262 2.06115,0.44601 4.06609,1.16949 5.99405,2.02404 2.36793,1.04956 4.63509,2.34224 6.78614,3.78504 2.03736,1.36654 3.91403,2.96783 5.75558,4.58667 -1.98549,2.01804 -4.28541,3.70023 -6.6488,5.24323 -1.89678,1.23836 -3.9148,2.30548 -5.99916,3.19248 -1.98896,0.8464 -4.04332,1.59628 -6.16433,2.01299 -2.48382,0.48799 -5.04521,0.66067 -7.57405,0.549 -1.71614,-0.0758 -3.42981,-0.37222 -5.0871,-0.82416 -2.35074,-0.64104 -4.61507,-1.59832 -6.81021,-2.65579 -1.95379,-0.94121 -3.83808,-2.03998 -5.62648,-3.26667 -1.5609,-1.07064 -3.00344,-2.3085 -4.4282,-3.55458 -0.24062,-0.21044 -0.69458,-0.66122 -0.69458,-0.66122 z"
         id="path1347" /><path
         style="fill:none;fill-opacity:1;stroke:#000000;stroke-width:0.600001;stroke-dasharray:none;stop-color:#000000"
         d="m 321.42997,111.22652 c 0,0 -2.17875,2.90085 -2.17975,4.5966 -0.001,1.69996 2.17975,4.61057 2.17975,4.61057"
         id="path2484" /><path
         style="fill:none;fill-opacity:1;stroke:#000000;stroke-width:0.600001;stroke-dasharray:none;stop-color:#000000"
         d="m 317.58297,113.0691 c 0,0 -1.33102,1.74169 -1.28728,2.75402 0.0482,1.1165 1.28728,2.90375 1.28728,2.90375"
         id="path2549" /><path
         style="fill:none;fill-opacity:1;stroke:#000000;stroke-width:0.600001;stroke-dasharray:none;stop-color:#000000"
         d="m 343.23439,120.48654 c 0,0 2.17875,-2.90085 2.17975,-4.5966 0.001,-1.69996 -2.17975,-4.61057 -2.17975,-4.61057"
         id="path2484-7" /><path
         style="fill:none;fill-opacity:1;stroke:#000000;stroke-width:0.600001;stroke-dasharray:none;stop-color:#000000"
         d="m 346.86409,118.60012 c 0,0 1.33102,-1.74169 1.28728,-2.75402 -0.0482,-1.1165 -1.28728,-2.90375 -1.28728,-2.90375"
         id="path2549-3" /><ellipse
         style="fill:none;fill-opacity:1;stroke:#000000;stroke-width:0.600001;stroke-dasharray:none;stop-color:#000000"
         id="path2596"
         cx="332.23553"
         cy="115.86182"
         rx="1.7038555"
         ry="1.6509408" /><ellipse
         style="fill:none;fill-opacity:1;stroke:#000000;stroke-width:0.600001;stroke-dasharray:none;stop-color:#000000"
         id="path2600"
         cx="332.26727"
         cy="115.84067"
         rx="7.852551"
         ry="7.7467217" /><text
         xml:space="preserve"
         style="font-style:normal;font-variant:normal;font-weight:normal;font-stretch:normal;font-size:10.5833px;line-height:0;font-family:cam;-inkscape-font-specification:cam;text-decoration-color:#000000;letter-spacing:2.38125px;fill:#000000;fill-opacity:1;stroke:#000000;stroke-width:0.600001;stroke-dasharray:none;stop-color:#000000"
         x="303.78165"
         y="152.26189"
         id="text12296"><tspan
           id="tspan12294"
           style="font-style:normal;font-variant:normal;font-weight:normal;font-stretch:normal;font-size:10.5833px;font-family:'Times New Roman';-inkscape-font-specification:'Times New Roman, ';fill:#000000;fill-opacity:1;stroke-width:0.6"
           x="303.78165"
           y="152.26189">BI<tspan
   style="letter-spacing:1.32292px"
   id="tspan12647">OV</tspan>ISM</tspan></text></g></g></svg>
